# xmcd
# 
# Track frame offsets:
#     182
#     11125
#     30697
#     47125
#     83930
#     113820
#     133592
# 
# Disc length: 2159
# 
# Revision: 6
# Processed by: cddbd v1.5.2PL0 Copyright (c) Steve Scherf et al.
# Submitted via: BonkEnc v1.0
# 
DISCID=57086d07
DTITLE=Roy Buchanan - Live Stock
DYEAR=1975
DGENRE=Rock
TTITLE0=Reelin' And Rockin
TTITLE1=Hot Cha
TTITLE2=Further On Up The Road
TTITLE3=Roy's Bluz
TTITLE4=Can I Change My Mind
TTITLE5=I'm A Ram
TTITLE6=I'm Evil
EXTD=YEAR: 1975
EXTT0=
EXTT1=
EXTT2=
EXTT3=
EXTT4=
EXTT5=
EXTT6=
PLAYORDER=
